<svg xmlns="http://www.w3.org/2000/svg" xmlns:xlink="http://www.w3.org/1999/xlink" id="Layer_1" data-name="Layer 1" version="1.1" viewBox="0 0 1952 1547"><defs id="defs553"><linearGradient id="White_Black" x1="452.1" x2="452.1" y1="1719.8" y2="1455.6" gradientUnits="userSpaceOnUse"><stop id="stop514" offset="0" stop-color="#fff"/><stop id="stop516" offset="1"/></linearGradient><linearGradient xlink:href="#White_Black" id="White_Black-2" x1="606.8" x2="606.8" y1="1719.8" y2="1455.6" gradientTransform="matrix(1.3601 0 0 1.13972 -397 -381)"/><linearGradient xlink:href="#White_Black" id="White_Black-3" x1="776.9" x2="776.9" y1="1719.8" y2="1455.6"/><linearGradient xlink:href="#White_Black" id="White_Black-4" x1="989.1" x2="989.1" y1="1719.8" y2="1455.6" gradientTransform="matrix(1.3601 0 0 1.13972 -397 -381)"/><linearGradient xlink:href="#White_Black" id="White_Black-5" x1="1175" x2="1175" y1="1719.8" y2="1455.6"/><linearGradient xlink:href="#White_Black" id="White_Black-6" x1="1332.3" x2="1332.3" y1="1719.8" y2="1455.6"/><linearGradient xlink:href="#White_Black" id="White_Black-7" x1="1544.5" x2="1544.5" y1="1719.8" y2="1455.6" gradientTransform="matrix(1.3601 0 0 1.13972 -397 -381)"/><linearGradient xlink:href="#White_Black" id="linearGradient801" x1="452.1" x2="452.1" y1="1719.8" y2="1455.6" gradientTransform="matrix(1.3601 0 0 1.13972 -397 -381)" gradientUnits="userSpaceOnUse"/><radialGradient id="radial-gradient" cx="1003.6" cy="1259.6" r="133.9" gradientUnits="userSpaceOnUse"><stop id="stop525" offset="0" stop-color="#fff"/><stop id="stop527" offset=".4" stop-color="#fdfdfd"/><stop id="stop529" offset=".5" stop-color="#f6f6f6"/><stop id="stop531" offset=".6" stop-color="#ebebeb"/><stop id="stop533" offset=".7" stop-color="#dadada"/><stop id="stop535" offset=".8" stop-color="#c4c4c4"/><stop id="stop537" offset=".8" stop-color="#a8a8a8"/><stop id="stop539" offset=".9" stop-color="#888"/><stop id="stop541" offset=".9" stop-color="#626262"/><stop id="stop543" offset=".9" stop-color="#373737"/><stop id="stop545" offset="1" stop-color="#090909"/><stop id="stop547" offset="1"/></radialGradient><clipPath id="clip-path"><path id="path550" fill="none" d="M1003 1140h2c66 0 119 54 119 121 0 66-53 121-119 121h-2c-65 0-119-55-119-121 0-67 54-121 119-121z"/></clipPath><style id="style512">    .cls-2{fill:#fff}.cls-3{fill:#6fa973}.cls-4{fill:#48574a}.cls-5{fill:#f7931e}.cls-6{opacity:.22}  </style></defs><g id="g3095" transform="translate(10 -66)"><path id="path555" d="M1299 1302a96 96 0 0 1-26-4 17 17 0 0 1-10 4H951a96 96 0 0 1-27-4 17 17 0 0 1-10 4H624c-18 0-33-4-47-13a86 86 0 0 1-33-34 95 95 0 0 1-9-27 17 17 0 0 1-5-2l-3-1a149 149 0 0 1-30-16 147 147 0 0 1-18-15l-2-2a17 17 0 0 1-5-10v-3a99 99 0 0 1 2-36l1-4v-1l-8-11-2-3a17 17 0 0 1-3-12l1-3a96 96 0 0 1 7-24v-1a94 94 0 0 1 7-13l2-2a17 17 0 0 1 4-4 128 128 0 0 1-5-12l-1-5-1-4a17 17 0 0 1 3-15l11-14c-11-19-20-44-26-66a17 17 0 0 1-10-4l-4-3a17 17 0 0 1-8-6l-7-6c-12-10-20-22-22-35a134 134 0 0 1-2-66 200 200 0 0 1 5-19l6-24c0-7-1-11-2-12h-1l-6 1c-14 8-20 30-24 46a142 142 0 0 1-5 16c-6 15-15 17-21 17-16-1-22-18-23-24a17 17 0 0 1-1-2 255 255 0 0 1 2-89 986 986 0 0 1 53-138l2-6a526 526 0 0 1 83-125c29-35 53-60 76-75 21-15 52-27 94-37l87-16 18-2c6-2 11-4 45-8l31-4 10-1h2a17 17 0 0 1 8 2l8 5 3 2 3-1c26 0 49 13 63 35a86 86 0 0 1 13 36 120 120 0 0 1 12-1 111 111 0 0 1 12 0h4l7-1 4 1a120 120 0 0 1 13 1 86 86 0 0 1 13-36c14-22 37-35 62-35l4 1 2-2 8-5a17 17 0 0 1 9-2h2l9 1a2522 2522 0 0 1 76 12l19 2c21 4 54 9 86 16 42 10 73 22 95 37s47 40 75 75c22 27 40 52 49 66l5 7 29 52 4 6v1a982 982 0 0 1 52 137 255 255 0 0 1 2 89 17 17 0 0 1-1 2c-2 6-7 23-23 24h-1c-5 0-15-2-21-17a141 141 0 0 1-5-16c-4-16-10-38-24-46l-6-1c-1 1-3 5-3 12l6 24a200 200 0 0 1 6 19 131 131 0 0 1 3 31v1l1 2c4 13 6 40-20 61l-17 13a17 17 0 0 1-10 6 125 125 0 0 1-7 25c-4 13-10 30-20 48l10 13a17 17 0 0 1 3 15l-1 4-1 5a127 127 0 0 1-5 12 17 17 0 0 1 4 4l2 2a95 95 0 0 1 7 13v1a96 96 0 0 1 7 24l1 3a17 17 0 0 1-3 12l-2 3-8 11v1l1 4a98 98 0 0 1 2 36v3a17 17 0 0 1-5 10l-2 2a148 148 0 0 1-48 31l-3 1a17 17 0 0 1-4 1v58a17 17 0 0 1-17 17z"/><path id="path557" d="M1090 337a6 6 0 0 1 1 0l9 1 31 4c36 4 39 5 43 7h1l19 3c22 3 54 8 86 16 41 9 71 21 91 35 22 15 45 38 73 73 22 26 39 52 49 66l5 7c5 6 14 23 28 51l4 6c12 25 23 50 32 76 10 26 15 40 19 59a245 245 0 0 1 2 85 7 7 0 0 1-1 1c-2 8-6 16-14 16-7 0-10-7-11-10a137 137 0 0 1-5-15c-5-18-11-43-29-52a23 23 0 0 0-11-3 10 10 0 0 0-7 4c-4 4-6 11-5 19 0 9 3 18 6 27l5 18a121 121 0 0 1 3 32 7 7 0 0 1 1 2v1c1 1 10 28-16 50l-18 14a7 7 0 0 1-6 3 7 7 0 0 1-6-4v8a113 113 0 0 1-7 28c-5 13-11 32-23 52l12 15 3 3a7 7 0 0 1 1 6l-1 4-2 4a120 120 0 0 1-9 21h2l3 1a7 7 0 0 1 5 3l1 3a85 85 0 0 1 7 11v1a86 86 0 0 1 6 21l1 3a7 7 0 0 1-1 5l-2 3a154 154 0 0 1-12 16 7 7 0 0 1 3 4l1 4a89 89 0 0 1 2 33l-1 2a7 7 0 0 1-2 4l-2 2a138 138 0 0 1-45 30l-2 1a7 7 0 0 1-3 0 7 7 0 0 1-2 0l-3-1-2-1v70a7 7 0 0 1-7 7h-91a84 84 0 0 1-30-6 7 7 0 0 1-6 6H951a84 84 0 0 1-30-6 7 7 0 0 1-7 6H624c-16 0-30-4-42-11a77 77 0 0 1-29-31 87 87 0 0 1-9-35l-3 1-3 1a7 7 0 0 1-2 0 7 7 0 0 1-3 0l-2-1a137 137 0 0 1-45-29l-2-2a7 7 0 0 1-2-4v-3a88 88 0 0 1 1-33l1-4a7 7 0 0 1 4-4 153 153 0 0 1-13-16l-1-2a7 7 0 0 1-2-5l1-3a86 86 0 0 1 6-22v-1a83 83 0 0 1 7-11l2-3a7 7 0 0 1 4-3h4l1-1a119 119 0 0 1-9-21l-2-4-1-3a7 7 0 0 1 2-7l2-3 13-16c-14-21-25-56-32-81a7 7 0 0 0 1-6l-8-23 7 29a7 7 0 0 1-10 2l-5-4a7 7 0 0 1-5-3v-1l-9-7c-10-8-16-18-18-29a124 124 0 0 1-2-62l5-18 6-27c1-8-1-15-5-19a10 10 0 0 0-8-3 23 23 0 0 0-10 3c-18 9-25 34-30 52a137 137 0 0 1-4 15c-1 2-4 10-12 10-8-1-12-9-14-17a7 7 0 0 1 0-1 245 245 0 0 1 1-85c4-19 10-33 19-59a978 978 0 0 1 33-76l3-6c14-28 24-44 29-51l5-7c9-14 27-39 48-66 28-34 52-58 73-73 21-14 51-25 92-35 31-8 64-12 85-16l20-3c4-1 8-3 43-7l31-4 10-1a6 6 0 0 1 1 0 7 7 0 0 1 3 1l8 5 5 3h6c22 0 42 11 54 30a74 74 0 0 1 12 42 113 113 0 0 1 23-3l3-1 8 1a7 7 0 0 1 1 0h1a7 7 0 0 1 1 0l8-1 4 1a113 113 0 0 1 22 3 74 74 0 0 1 12-43 64 64 0 0 1 60-29l5-3 8-5a7 7 0 0 1 4-1m0-20a27 27 0 0 0-14 4l-8 4h-1c-29 0-55 15-71 39a95 95 0 0 0-12 31 115 115 0 0 0-16 0h-4l-8-1-4 1h-4a95 95 0 0 0-13-31 83 83 0 0 0-71-39h-1l-8-4a27 27 0 0 0-14-4 26 26 0 0 0-2 0l-10 1a2815 2815 0 0 0-95 15c-22 3-54 8-87 15-43 11-76 23-98 39-23 15-48 41-77 77-22 27-40 52-50 66l-5 7-30 53-3 6-1 2a986 986 0 0 0-52 139 265 265 0 0 0-2 92 27 27 0 0 0 1 4 59 59 0 0 0 8 17c6 8 15 13 24 14h1c7 0 22-3 30-23a147 147 0 0 0 6-17c2-10 6-25 12-33a149 149 0 0 1-4 16 210 210 0 0 0-6 20 144 144 0 0 0 2 70c3 16 12 30 26 41l6 5a27 27 0 0 0 10 7l2 3a27 27 0 0 0 9 4c6 19 13 40 22 57l-5 6-2 3a27 27 0 0 0-5 24l1 4 2 5 2 6v1l-2 3a104 104 0 0 0-8 14v1a106 106 0 0 0-8 26v3a27 27 0 0 0 4 20l2 2 5 8a109 109 0 0 0-2 41v2a27 27 0 0 0 8 16l2 2a158 158 0 0 0 51 33l3 1 1 1a105 105 0 0 0 8 23 96 96 0 0 0 37 39c15 9 32 14 52 14h290a27 27 0 0 0 12-3 108 108 0 0 0 25 3h312a27 27 0 0 0 12-3 108 108 0 0 0 24 3h90a27 27 0 0 0 27-27v-50h1a158 158 0 0 0 51-34l2-2a27 27 0 0 0 8-16v-2a109 109 0 0 0-2-41l5-8 2-2a27 27 0 0 0 4-19v-3a106 106 0 0 0-8-27v-1a103 103 0 0 0-8-14l-2-3 2-7 2-5 1-4a27 27 0 0 0-5-24l-2-3-4-5 18-43a142 142 0 0 0 6-21 27 27 0 0 0 8-7l16-12c20-16 25-34 26-47a61 61 0 0 0-3-26v-1a141 141 0 0 0-3-31l-6-20a149 149 0 0 1-5-16c6 9 10 23 13 33a149 149 0 0 0 5 17c8 21 24 23 30 23h1c10-1 19-6 25-14a59 59 0 0 0 8-17 27 27 0 0 0 1-4 265 265 0 0 0-2-92c-4-21-10-36-20-62a1001 1001 0 0 0-34-78l-3-7a472 472 0 0 0-35-60c-9-14-27-39-49-66-29-36-54-62-77-77-23-16-55-28-98-39-33-7-66-12-88-15l-17-3c-6-2-13-4-46-8l-32-4-9-1a26 26 0 0 0-3 0z" class="cls-2"/><path id="path559" d="M1935 700a1541 1541 0 0 0-81-212v-1l-5-9c-23-43-38-70-45-80l-8-11c-15-22-43-62-77-104-44-54-81-92-114-114-31-22-78-40-142-55-50-11-101-19-135-24l-33-5-1-1c-6-2-11-4-66-11l-50-6-14-1-13 7-11 7a101 101 0 0 0-13-1c-31 0-59 15-76 42-16 24-21 53-15 77a171 171 0 0 0-50-9 146 146 0 0 0-18 0h-5a141 141 0 0 0-18 0 171 171 0 0 0-49 9c6-24 0-53-15-77a90 90 0 0 0-77-42 101 101 0 0 0-12 1l-11-7-13-7-15 1-49 6c-56 7-61 9-66 11h-2l-33 6c-34 5-85 12-135 24-64 15-110 33-142 55-33 22-70 60-114 114-33 41-61 82-77 104l-8 11c-7 10-22 37-44 79l-5 10A1541 1541 0 0 0-3 700c-7 32-11 77-3 131 5 15 9 19 12 19 17 0 15-95 68-122 35-18 55 8 53 42-2 26-13 49-19 74-7 33-4 68 7 100l11 11a213 213 0 0 1 29 37c1 0-8-16-2-33 4-13 13-21 19-25 36-27 67-42 81-46-17 16-42 46-52 89-23 104 66 197 103 235 32 33 75 78 146 94 75 16 179 1 204-56 8-18 11-45 5-66-4-15-11-33-24-62l-20-43-4-9-24-50c-1-9-3-20-10-40-3-10-9-21-17-32 12-7 23-18 34-35-11 35-10 74 3 112a187 187 0 0 0 27 52c13 16 27 29 43 37a182 182 0 0 0 63 18 195 195 0 0 0 20 1c38 0 71-11 94-30 10 16 17 23 24 26 11 7 24 9 40 9a325 325 0 0 0 37-3 47 47 0 0 0 18-8l2 2v1l1-1v1-1l2-2a47 47 0 0 0 18 8 70 70 0 0 0 15 2l22 1c17 0 29-1 41-9 6-3 14-10 23-26 23 19 56 30 95 30a195 195 0 0 0 20-1 182 182 0 0 0 62-18c16-8 31-21 44-37a187 187 0 0 0 27-52c13-38 14-77 3-112 11 17 22 28 34 35-9 11-14 22-18 32-6 20-8 31-9 40l-24 50-4 9-21 43c-13 29-20 47-24 62-3 10-11 40 6 66 17 28 54 35 96 42 56 8 131 19 209-24 42-24 67-54 88-80 44-54 62-103 74-138a151 151 0 0 0-1-116 144 144 0 0 0-12-22 234 234 0 0 1 28 22c10 11 16 16 19 25 5 17-4 33-2 33a213 213 0 0 1 28-37l12-11c11-32 13-67 6-100-5-25-17-48-19-74-2-34 18-60 53-42 54 27 51 122 68 122 3 0 7-4 12-19 8-54 4-99-2-131zM261 889l-3-3c3 0 3 1 3 3zm1410 0c-1-2 0-3 2-3z"/><path id="path561" d="M1545 529c-52-34-117-5-143 21a295 295 0 0 1-24 21c-33 26-83 55-126 44a742 742 0 0 1-54-15c-15-5-22-10-28-16-11-12-19-16-19-16l2 10a149 149 0 0 0 47 89 10 10 0 0 0 8 1c9-2 16-16 17-17l-1 2c-1 8-5 35 18 41l2 1c-4-13 10-45 47-21 26 17 20 72-19 99a94 94 0 0 1-62 16c-91-6-94-62-94-111 0-35-1-65-12-84a43 43 0 0 0-11-13 37 37 0 0 0-6-4c-25-13-62-34-69-73v-2a4 4 0 0 1-1 0l1 1 1 2c14 24 49 52 73 55 39 23 43 81 41 111v1c13-9 20-52 13-88a118 118 0 0 0-3-13c-3-9-7-18-13-25-12-14-19-25-24-34-5-10-6-16-6-16s-41 12-61-9c21 7 33 5 40-1l1-1a23 23 0 0 0 3-4 29 29 0 0 0 4-9c2-7-1-14-6-16-5-1-10 1-16 9-8 12-29 10-43 4-7-3-12-7-14-11-12-3-14 0-14 0s8 13 6 34c-11-25-20-34-32-36-1-8 7-7 7-7s-1-5-5-6c-3-13 0-29 10-33-7 11 0 33 16 34 11 1 15-3 26-12l12-9 5-4c27-19 34-3 47-16s9-42 9-42a47 47 0 0 1-27-10 46 46 0 0 1-15-22 66 66 0 0 1-2-11c2 12 21 20 30 20-4-8-19-20-19-53 0-8-4-16-10-23-15-16-46-27-73-28a97 97 0 0 0-16 0 97 97 0 0 0-16 0c-27 1-57 12-72 28-7 7-10 15-10 23 0 33-16 45-20 53 10 0 28-8 31-20a66 66 0 0 1-3 11 46 46 0 0 1-15 22 47 47 0 0 1-27 10s-3 29 10 42 19-3 46 16l5 4 12 9c12 9 15 13 27 12 16-1 22-23 15-34 11 4 13 20 10 33-4 1-5 6-5 6s9-1 7 7c-11 2-20 11-31 36-2-21 6-34 6-34s-3-3-15 0c-1 4-7 8-13 11-15 6-36 8-44-4-5-8-11-10-15-9-5 2-8 9-7 16a29 29 0 0 0 4 9 22 22 0 0 0 3 4l1 1c7 6 20 8 40 1-20 21-60 9-60 9s-1 6-7 16c-4 9-12 20-24 34-5 7-10 16-13 25a121 121 0 0 0-3 13c-7 36 0 79 14 88v-1c-3-30 1-88 40-111 25-3 59-31 73-55l1-2 1-1v2c-8 39-45 60-70 73a37 37 0 0 0-6 4 43 43 0 0 0-11 13c-10 19-12 49-12 84 0 49-2 105-94 111-26 2-47-5-62-16-39-27-45-82-18-99 36-24 50 8 46 21l2-1c24-6 20-33 18-41l-1-2c1 1 8 15 17 17a10 10 0 0 0 9-1l2-2c36-31 46-86 45-87l1-10s-7 4-19 16c-6 6-13 11-27 16l-15 5-39 10c-44 11-94-18-126-44h-1a299 299 0 0 1-23-21c-27-26-92-55-143-21a56 56 0 0 0-24 70c7 17 19 30 29 36-32-46-1-79 42-75 42 4 104 59 144 100-2-7-30-53-92-95 49 10 106 73 113 81l1 1s9-13 36-13c-40 17-58 61-53 105a135 135 0 0 0 9 38c14 35 45 65 90 72 116 19 173-38 199-153 25-116 87-113 87-113s63-3 88 113c25 115 82 172 198 153 46-7 76-37 91-72a135 135 0 0 0 9-38c4-44-13-88-54-105 28 0 36 13 36 13l1-1c7-8 64-71 114-81-63 41-91 88-93 95 41-41 102-96 145-100 42-4 73 28 41 75 11-6 23-20 29-36 8-23 6-50-23-70zm-537-179c-12-1-11-16-11-16a14 14 0 0 0 10 7 13 13 0 0 0 2 0c8 0 13 0 21-25v-1a11 11 0 0 0-2 0l-15 5-1 1h-1l-1 1 3-4c4-4 13-11 22-13 4 31-15 47-27 45zm-16-57a11 11 0 0 0 9 5c7 0 10 0 17-20l-16 5a50 50 0 0 1 7-6c3-3 8-6 12-7 4 25-11 37-20 36-8-1-9-9-9-12a11 11 0 0 1 0-1zm-74 57c-12 2-30-14-26-45a46 46 0 0 1 25 17l-2-1h-1l-1-1-14-5a11 11 0 0 0-3 0l1 1c8 25 12 25 20 25a12 12 0 0 0 2 0 14 14 0 0 0 10-7s1 15-11 16zm16-56c0 3-1 11-8 12-10 1-24-11-21-36 5 1 9 4 13 7a50 50 0 0 1 7 6l-17-5c7 20 10 20 17 20a11 11 0 0 0 9-5v1z" class="cls-3"/><path id="path563" d="M851 170c-5-21-38-24-54-22-12 2-16-8-17-18l-1-2v-8c-11 14 0 29-1 30s-59 12-66 19l-2 2c-10 12-44 57-44 84s-17 68-17 68-20 24-56 48a65 65 0 0 0 2-11c2-33-18-64-18-64s36-28 40-45 10-36 59-85c-57 15-71 77-81 86-9 10-61 59-91 82s-76 46-122 117l-76 116-3 5s-1-13 3-37c2-10 18-42 36-77 28-52 62-111 71-114 15-6 75-87 111-115a214 214 0 0 0 22-19 121 121 0 0 0 10-11 55 55 0 0 0 6-10c2-6 2-9-1-9h-5c-4 0-125 31-157 51S229 384 206 408l-4 4h-1c-7 8-166 250-167 252 15-41 56-125 89-187 19-37 35-66 41-74 15-21 111-166 188-218 77-53 260-70 296-78l3-1 5-1h-2c9-4 104-14 104-14a2558 2558 0 0 0 27 15h1c55-17 74 43 65 64z" class="cls-3"/><path id="path565" d="M752 529c-11 3-82 17-123-16 7 27 41 44 49 47-27 0-91-24-91-99 0-26 8-46 20-61 23-30 62-41 87-38a113 113 0 0 1 42 12c22 12 42 34 51 70 0 0-25-44-63-44 21 12 29 32 27 40 0 0-24-45-90-17 5-12 28-24 28-24s-43-2-50 43c-6 44 63 100 161 23 6 13-36 60-48 64z" class="cls-3"/><path id="path567" d="M783 521c0 21-47 63-85 73s-126-4-168-64c-13-18-21-32-25-44-9-26 1-38 7-49 5-11 22-15 36-11 8 3 14 8 17 17 0 0-39-23-50 18a29 29 0 0 0-1 5v1c-1 42 80 113 150 110a176 176 0 0 0 27-3c56-11 86-46 92-53z" class="cls-3"/><path id="path569" d="M963 606v30s-51 33-48 90c-13-57 2-106 41-118a62 62 0 0 1 7-2z" class="cls-3"/><path id="path571" d="M864 866c-63 34-150 36-156 101-7 65 63 73 84 47 7 18-13 34-27 38 41 3 64-31 25-75 30 5 44 16 45 39 0 8-2 18-5 30-8 31-52 46-96 41a137 137 0 0 1-47-13c-39-20-73-97-47-158 10-22 27-41 53-56 47 17 117 1 154-43a160 160 0 0 0 23-36 234 234 0 0 0 20-72s1 21 4 26c0 0 33 98-30 131z" class="cls-3"/><path id="path573" d="M954 873s3 75-8 82l-14 2 11 6c2 0 4 44 2 54s-18 19-18 19 18 16 19 19c2 3-9 35-9 36s-40 4-46 0c-6-3-22-35-20-39s24-19 27-19-23-8-25-13 0-52 3-57c2-5 27-8 27-8s-27-13-27-22c0-10 20-47 34-57 13-9 43-7 44-3z" class="cls-4"/><path id="path575" d="M871 900s0 15-5 21c-6 5-10 18-22 18-11 0-33-3-37-10s-12-17-10-20c3-4 30-17 36-17s36 6 38 8z" class="cls-4"/><path id="path577" d="M811 948c0-3 28 0 32 2 4 3 9 25 8 32 0 8-21-4-24-10-2-6-16-14-16-24z" class="cls-4"/><path id="path579" d="M855 426s0 21 20 29c19 8 36-2 36-2s-21-23-35-25c-15-2-9 11-5 16-9 2-16-18-16-18z" class="cls-5"/><path id="path581" d="M362 190a355 355 0 0 1-8 7c-9 9-108 110-138 149-30 40-93 131-93 131 19-37 35-66 41-74 15-21 111-166 188-218 77-53 260-70 296-78l3-1c-6 2-267 70-289 84z" class="cls-2"/><path id="path583" d="M546 210c0 7-32 28-65 72-32 44-57 60-63 65l-76 111c28-52 62-111 71-114 15-6 75-87 111-115a214 214 0 0 0 22-19z" class="cls-2"/><path id="path585" d="M963 234v44c-11 1-20-10-20-10s8 4 14 0c-6 0-20-6-19-20 1-7 5-11 9-14a97 97 0 0 1 16 0z" class="cls-2"/><path id="path587" d="m892 423-5-4c-27-19-33-3-46-16s-10-42-10-42a47 47 0 0 0 27-10c-3 6-11 15-18 16-8 13 1 38 14 38 14 0 36 11 38 18z" class="cls-2"/><path id="path589" d="M843 481a29 29 0 0 1-4-9c-1-7 2-14 7-16a22 22 0 0 0-3 25z" class="cls-2"/><path id="path591" d="M884 552c-28 20-63 34-64 71s4 111-16 140a97 97 0 0 1-76 39c33-8 37-17 37-17s-86 23-111-12c16 11 36 18 62 16 92-6 94-62 94-111s4-88 29-101 62-34 70-73a58 58 0 0 1-25 48z" class="cls-2"/><path id="path593" d="M734 1087a137 137 0 0 1-47-13c-39-20-73-97-47-158 0 7-33 142 94 171z" class="cls-2"/><path id="path595" d="M736 376c-60-28-110 7-129 24 23-30 62-41 87-38a113 113 0 0 1 42 12 14 14 0 0 1 0 2z" class="cls-2"/><path id="path597" d="M534 559c-81-65-120-40-154-21-23 12-24 42-22 61-8-23-6-51 24-70 51-34 116-5 143 21l9 9z" class="cls-2"/><path id="path599" d="M851 170c-5-21-38-24-54-22-12 2-16-8-17-18l-1-2v-4c0-10 4-15 7-19 55-16 74 44 65 65z" class="cls-5"/><path id="path601" d="M141 973a58 58 0 0 1-23-40 48 48 0 0 1 2-20v-1l1-1c4-4 9-7 14-7 12 0 19 16 20 18l2 3-3 3c-1 0-13 14-4 38l6 19z" class="cls-5"/><path id="path603" d="M134 910c10 0 16 14 16 14s-16 16-6 44c-30-24-19-53-19-53 3-4 7-5 9-5m0-11c-6 0-12 3-17 8l-2 2-1 2a53 53 0 0 0-2 23c1 11 7 28 25 43l30 24-12-36c-7-21 2-32 3-33l6-5-4-7c-1-3-9-21-25-21z"/><path id="path605" d="M1795 957c9-25-4-38-4-39l-3-3 2-3c0-2 8-17 20-17 5 0 10 2 14 6l1 1v1a48 48 0 0 1 2 20c-1 11-6 26-23 40l-15 12z" class="cls-5"/><path id="path607" d="M1810 900c3 0 6 2 10 5 0 0 11 29-20 53 10-28-5-44-5-44s6-14 15-14m0-11c-16 0-25 19-26 21l-3 7 6 5c1 1 10 12 3 33l-13 36 30-24c19-15 24-32 26-43a53 53 0 0 0-3-23l-1-2-1-2c-6-5-11-8-18-8z"/><path id="path609" d="M562 189c3-6 2-9-1-9h-5c-4 0-125 31-157 51S229 384 206 408l-4 4h-1a632 632 0 0 1 112-129c27-18 75-70 88-77 14-6 155-50 217-46-29 3-55 28-56 29z" class="cls-6"/><path id="path611" d="M637 228c-4 16 4 24-13 39-18 15-27 45-27 45s0 29-2 48c2-33-18-64-18-64s36-28 40-45 10-36 59-85c-57 15-71 77-81 86-9 10-61 59-91 82s-76 46-122 117l-76 116 47-84c18-30 47-73 62-90l39-42c10-10 62-66 61-59s-25 28-18 26c8-1 35-17 41-30 7-12 34-22 43-36 10-14 17-32 17-32l36-45s37-15 47-17 9 0 16-1c8-1-55 56-60 71z" class="cls-6"/><path id="path613" d="M851 170c-5-21-38-24-54-22-12 2-16-8-17-18l-1-2v-8c-11 14 0 29-1 30s-59 12-66 19l-2 2a2 2 0 0 1 0-3c6-14 55-21 54-30s8-28 20-32h1c-6 14 22 29 45 29s21 35 21 35z" class="cls-6"/><path id="path615" d="M594 646c-7-8-64-71-113-81 62 42 90 88 93 95-41-41-103-96-145-100-43-4-74 29-41 75-4-4-39-40-10-69s85-14 108 13c-12-19-18-22-18-22s19-5 46 13 77 61 80 76z" class="cls-6"/><path id="path617" d="M702 653a25 25 0 0 0-1-2c-8-14-26-19-40-20a189 189 0 0 0-22-1c-11 0-23 2-33 8l-12 8 1 1s9-13 36-13c-40 17-58 61-53 105-1-7-6-52 24-82 4-4 15-14 33-18 20-5 48-1 59 16 4 7 7 14 5 21-2 8-8 14-15 18a22 22 0 0 0 14-10 34 34 0 0 0 6-16 33 33 0 0 0-2-15z" class="cls-6"/><path id="path619" d="m775 568-1 10c1 1-9 59-47 89a10 10 0 0 1-9 1c13-2 50-72 42-77-7 8-32 12-46 14 25-8 34-13 42-21 12-12 19-16 19-16z" class="cls-6"/><path id="path621" d="M783 521c0 21-47 63-85 73s-126-4-168-64c-13-18-21-32-25-44 9 23 53 82 105 98 28 8 58 0 80-10 57-11 87-46 93-53z" class="cls-6"/><path id="path623" d="M565 443s-39-23-50 18a29 29 0 0 0-1 5c2-42 35-31 39-32 3-2-2-5-5-8 8 3 14 8 17 17z" class="cls-6"/><path id="path625" d="M752 529c-11 3-82 17-123-16 7 27 41 44 49 47-33-5-68-43-66-69 20 26 57 30 80 31-17-2-42-12-56-48-24-60 24-83 79-83 53 0 71 51 72 52 0 0-25-43-63-43 21 12 29 32 27 40 0 0-24-45-90-17 5-12 28-24 28-24s-43-2-50 42c-6 45 63 100 161 24 6 13-36 60-48 64z" class="cls-6"/><path id="path627" d="m834 581-12 13a43 43 0 0 1 12-13z"/><path id="path629" d="M907 505c-14 24-48 52-73 55-39 23-43 81-40 111v1c-14-9-21-52-14-88a121 121 0 0 1 3-13c3-9 8-18 13-25 12-14 19-25 24-34 6-10 7-16 7-16s40 12 60-9c-20 7-33 5-40-1l-1-1h1s35 5 48-3a75 75 0 0 1-52 31c-11-1-54 44-50 78 17-24 23-40 40-40s61-25 74-46z" class="cls-6"/><path id="path631" d="M907 360c-18-7-26-39-17-59 12 0 20 12 24 17-5-4-13-11-22-13-4 31 14 47 26 45 12-1 11-16 11-16 2 9-4 32-22 26z" class="cls-6"/><path id="path633" d="M934 293z" class="cls-6"/><path id="path635" d="M918 311c-14-4-19-28-13-42 9 0 15 8 18 12a47 47 0 0 0-5-4c-4-3-8-6-13-7-3 25 11 37 21 36 7-1 8-9 8-12 1 7-4 21-16 17z" class="cls-6"/><path id="path637" d="M873 329a66 66 0 0 0 3-11c-3 12-21 19-30 19 3-7 19-19 19-52 0-8 4-16 10-23a46 46 0 0 0-5 30c4 24 13 3 13 9s-3 19-10 28z" class="cls-6"/><path id="path639" d="M956 443c3-13 1-29-10-33 7 11 1 33-15 34-12 1-15-3-27-12 1 0 27 10 37-6 9-16-6-26-6-27 0 1 22 8 25 18s-3 25-4 26z" class="cls-6"/><path id="path641" d="M958 456s-29 21-29 59c-12-24-7-46-3-52-4-1-13 4-21 6 6-3 12-7 13-11 12-3 15 0 15 0s-8 13-6 34c11-25 20-34 31-36z" class="cls-6"/><path id="path643" d="M864 866c-63 34-150 36-156 101-7 65 63 73 84 47 7 18-13 34-27 38 41 3 64-31 25-75 30 5 44 16 45 39-5-18-11-25-20-18 9 20 6 46-25 59-29 12-56 0-57 0 1 0 17 2 13-9-65-12-57-95-56-99-1 2-1 15 11 31-11-64 57-95 121-117 48-16 50-59 48-82a234 234 0 0 0 20-72s1 21 4 26c0 0 33 98-30 131z" class="cls-6"/><path id="path645" d="M496 600v-1 1z"/><path id="path647" d="M501 1274c-30 26-133-11-170-79-15-28-22-69-30-67-6 1-4 25-12 27-7 2-21-17-49-83-6-18-13-49-9-89 3-24 9-42 15-51 8 16 12 53 27 66-3-43 4-106 8-111 3-4 39-47 88-62l8-2c-4-19-41-21-40-25s23-79 29-85c5-6 51-57 101-54-6 13-6 20-6 24-1 4 7 18 7 18s8-35 25-52a125 125 0 0 0-1 19s12-26 23-29c11 14 45 35 51 61-20-16-24-17-24-17s-11 38-20 51c-8 0-16 3-24 9-7 5-15 13-22 24-2 2 47-19 58-20 21 3 47 53 52 64 2 7 3 30 1 48-2 9-4 18-7 22-9 15-50 67-71 66-20-13-41-60-41-60l-36-10s-6-37-6-46a15 15 0 0 1 6 6s5-18 4-23l-5 6s2-28 13-34c-12 2-38 37-38 39l-5 18-9 37s-33 2-48 10c35 6 73 24 85 31a34 34 0 0 1 3 2c6 5 53 70 55 105 1 35-5 36-2 46l11 65 8 46c7 51 9 78-3 89z" class="cls-3"/><path id="path649" d="M485 1074c-6-6-20-18-54-34-51-23-33-71-33-71s-3 28 19 30c-10-35 4-65 12-78a34 34 0 0 1 3 2c6 5 53 70 54 105 2 35-4 36-1 46z" class="cls-2"/><path id="path651" d="M428 690s-38 22-42 57c20-25 32-29 32-29s-9 25-12 27c15-3 46-68 22-55z" class="cls-2"/><path id="path653" d="M524 783s-17 18-9 32 7 23 12 33c5 9 15-2 19-17 5-16 0-41-5-46s-16-6-17-2z" class="cls-2"/><path id="path655" d="M542 683s-11 38-20 51c-8 0-16 3-24 9 3-2 34-26 29-51-1-2-3-13-11-16-10-4-21 5-26 8-21 17-23 46-23 57-3-3-24-24-16-52 6-20 16-30 16-30-6 13-6 20-6 24-1 4 7 18 7 18s8-35 25-52a125 125 0 0 0-1 19s12-26 23-29c11 14 45 35 51 61z" class="cls-6"/><path id="path657" d="M580 881c-9 15-50 67-71 66-20-14-41-60-41-60l-36-10s-6-37-6-46a15 15 0 0 1 6 6s5-18 4-23l-5 6s2-28 13-34c-12 2-38 37-38 39l-5 18c1-58 41-67 61-71-6 7-21 40-22 70-1 29 41 23 49 46 7 24 55 31 62 18 5-11 27-36 36-47-2 9-4 18-7 22z" class="cls-6"/><path id="path659" d="M377 823c-4-19-41-21-40-25s23-79 29-85c0 0-22 73-18 81 13 7 30 20 29 29z" class="cls-6"/><path id="path661" d="M504 1185c7 51 9 78-3 89-30 26-133-11-170-79-15-28-22-69-30-67-6 1-4 25-12 27-7 2-21-17-49-83-6-18-13-49-9-89 3-24 9-42 15-51 8 16 12 53 27 66-3-43 4-106 8-111 3-4 39-47 88-62l8-2s-55 33-72 60c-17 29 11 72 11 72s6 62 13 86 14 117 53 144 101 19 122 0z" class="cls-6"/><path id="path663" d="M1076 170c5-22 37-25 54-22 12 1 16-9 17-19v-10c11 14 0 29 2 30 1 1 58 12 66 19l1 2c11 12 44 58 44 84 0 28 17 68 17 68s20 25 56 48a65 65 0 0 1-1-11c-3-32 18-63 18-63s-36-29-40-45c-4-17-11-37-59-85 56 14 70 76 80 86s62 58 91 81c30 23 76 46 122 117l76 117 3 5s2-13-3-37c-2-10-17-42-36-77-27-52-62-111-71-115-14-6-75-87-110-114a215 215 0 0 1-23-20 121 121 0 0 1-9-11 55 55 0 0 1-6-9c-3-6-2-9 1-9h4c4 0 126 31 157 50 32 20 170 154 194 178l4 3v1c7 8 167 250 168 252-16-41-57-125-89-187-19-37-35-66-41-74-16-21-111-166-188-219s-260-70-296-78h-4l-4-1c2 0 4 0 1-1-8-3-104-14-104-14l-25 16-1-1h-2c-54-17-74 43-64 65z" class="cls-3"/><path id="path665" d="M1174 529c12 3 83 17 124-16-8 27-41 44-50 47 28 0 92-24 92-99 0-26-8-46-20-61-24-30-62-41-87-38a113 113 0 0 0-43 12c-22 12-41 34-50 70 0 0 24-44 63-44-22 12-29 32-28 40 0 0 25-45 90-17-5-12-27-24-27-24s42-2 49 43c7 44-62 100-161 23-5 13 37 60 48 64z" class="cls-3"/><path id="path667" d="M1143 521c0 21 48 63 86 73s125-4 168-64c13-18 20-32 24-44 9-26 0-38-6-49-5-11-22-15-36-11-8 3-15 8-18 17 0 0 39-23 50 18a27 27 0 0 1 1 5v1c1 42-80 113-149 110a176 176 0 0 1-27-3c-56-11-86-46-93-53z" class="cls-3"/><path id="path669" d="M963 606v30s51 33 48 90c13-57-2-106-41-118a61 61 0 0 0-7-2z" class="cls-3"/><path id="path671" d="M1062 866c63 34 150 36 157 101s-64 73-85 47c-7 18 14 34 27 38-41 3-63-31-25-75-30 5-44 16-44 39 0 8 1 18 4 30 9 31 53 46 96 41a137 137 0 0 0 47-13c39-20 74-97 47-158-9-22-26-41-53-56-46 17-116 1-154-43a160 160 0 0 1-22-36 235 235 0 0 1-20-72s-2 21-4 26c0 0-34 98 29 131z" class="cls-3"/><path id="path673" d="M972 873s-2 75 8 82l15 2-11 6c-3 0-5 44-3 54s19 19 19 19-19 16-20 19 10 35 10 36 39 4 45 0c6-3 22-35 20-39s-24-19-26-19c-3 0 22-8 24-13s0-52-2-57c-3-5-27-8-27-8s26-13 26-22c0-10-20-47-33-57-14-9-43-7-45-3z" class="cls-4"/><path id="path675" d="M1055 900s1 15 6 21c5 5 10 18 21 18 12 0 34-3 37-10 4-7 13-17 10-20-3-4-29-17-36-17-6 0-36 6-38 8z" class="cls-4"/><path id="path677" d="M1115 948c0-3-27 0-32 2-4 3-8 25-8 32 1 8 22-4 24-10 3-6 16-14 16-24z" class="cls-4"/><path id="path679" d="M1071 426s0 21-19 29c-20 8-37-2-37-2s21-23 36-25 9 11 5 16c8 2 15-18 15-18z" class="cls-5"/><path id="path681" d="M1565 190a474 474 0 0 0 7 6c9 9 108 110 138 150s94 131 94 131c-19-37-36-66-41-74-16-21-111-166-188-219s-260-70-296-78h-4c7 1 267 70 290 84z" class="cls-2"/><path id="path683" d="M1380 209c0 7 33 29 65 73 33 44 58 59 63 65 6 5 75 109 76 111-27-52-62-112-71-115-15-6-75-87-110-114a215 215 0 0 1-23-20z" class="cls-2"/><path id="path685" d="M963 234v44c11 1 21-10 21-10s-9 4-14 0c5 0 20-6 18-20 0-7-5-11-9-14a97 97 0 0 0-16 0z" class="cls-2"/><path id="path687" d="m1034 423 5-4c27-19 34-3 47-16s9-42 9-42a47 47 0 0 1-27-10c4 6 11 15 19 16 7 13-1 38-15 38-13 0-36 11-38 18z" class="cls-2"/><path id="path689" d="M1083 481a29 29 0 0 0 4-9c2-7-1-14-6-16a22 22 0 0 1 2 25z" class="cls-2"/><path id="path691" d="M1043 552c28 20 62 34 63 71s-4 111 16 140c20 28 54 39 77 39-34-8-37-17-37-17s86 23 110-12a94 94 0 0 1-62 16c-91-6-94-62-94-111s-3-88-29-101c-25-13-62-34-69-73a58 58 0 0 0 25 48z" class="cls-2"/><path id="path693" d="M1192 1087a137 137 0 0 0 47-13c39-20 74-97 47-158 0 7 34 142-94 171z" class="cls-2"/><path id="path695" d="M1190 376c60-28 110 7 130 24-24-30-62-41-87-38a113 113 0 0 0-43 12 14 14 0 0 0 0 2z" class="cls-2"/><path id="path697" d="M1392 559c81-65 121-40 155-21 23 12 23 42 21 61 8-23 6-51-23-70-52-34-117-5-143 21l-10 9z" class="cls-2"/><path id="path699" d="M1076 170c5-22 37-25 54-22 12 1 16-9 17-19v-5c1-10-3-16-7-19-54-17-74 43-64 65z" class="cls-5"/><path id="path701" d="M1365 189c-3-6-2-9 1-9h4c4 0 126 31 157 50 32 20 170 154 194 177l4 4v1a632 632 0 0 0-112-130c-27-18-74-70-87-76-14-7-155-51-218-46 29 2 56 28 57 29z" class="cls-6"/><path id="path703" d="M1289 228c4 16-4 23 14 38 17 15 26 46 26 46s0 29 3 47c-3-32 18-63 18-63s-36-29-40-45c-4-17-11-37-59-85 56 14 70 76 80 86s62 58 92 81c29 23 75 46 121 117l76 117-46-84c-18-30-48-73-62-90s-30-33-40-42c-10-10-62-67-61-60s26 29 18 27c-7-2-34-17-41-30-6-13-34-23-43-37-9-13-16-32-16-32l-36-45s-37-15-47-17l-17-1c-7-1 56 56 60 72z" class="cls-6"/><path id="path705" d="M1076 170c5-22 37-25 54-22 12 1 16-9 17-19v-10c11 14 0 29 2 30 1 1 58 12 66 19l1 2a2 2 0 0 0 1-2c-7-14-55-21-54-30 1-10-8-28-20-32l-1-1c5 15-23 30-46 30-22 0-20 35-20 35z" class="cls-6"/><path id="path707" d="M1332 646c7-8 64-71 114-81-63 42-91 88-93 95 41-41 102-96 145-100 42-4 73 28 41 75 3-4 39-40 9-69-29-29-85-14-107 13 11-19 17-22 17-22s-18-5-45 13-77 61-81 76z" class="cls-6"/><path id="path709" d="M1225 653a25 25 0 0 1 1-2c7-14 25-19 40-20a189 189 0 0 1 21-1c12 0 24 2 34 8 1 0 12 7 11 8l-1 1s-8-13-36-13c40 17 58 61 54 105 1-7 6-52-25-82-3-4-15-14-33-18-20-5-47-1-59 16-4 7-6 14-5 21 2 8 8 14 15 18a22 22 0 0 1-14-10 34 34 0 0 1-5-16 33 33 0 0 1 2-15z" class="cls-6"/><path id="path711" d="m1151 568 2 10c-1 1 9 59 47 89a10 10 0 0 0 8 1c-12-2-50-72-41-77 6 8 31 12 46 14-25-8-35-13-43-21-11-12-19-16-19-16z" class="cls-6"/><path id="path713" d="M1143 521c0 21 48 63 86 73s125-4 168-64c13-18 20-32 24-44-9 23-52 82-105 98-27 8-58 0-80-10-56-11-86-46-93-53z" class="cls-6"/><path id="path715" d="M1361 443s39-23 50 18a27 27 0 0 1 1 5c-2-42-35-31-39-32-2-2 2-5 6-8-8 3-15 8-18 17z" class="cls-6"/><path id="path717" d="M1174 529c12 3 83 17 124-16-8 27-41 44-50 47 33-5 69-43 67-69-21 26-58 30-80 31 17-2 41-12 56-48 24-60-25-83-79-83s-72 51-72 52c0 0 24-43 63-43-22 12-29 32-28 40 0 0 25-45 90-17-5-12-27-24-27-24s42-2 49 42c7 45-62 100-161 24-5 13 37 60 48 64z" class="cls-6"/><path id="path719" d="m1093 581 11 13a43 43 0 0 0-11-13z"/><path id="path721" d="M1019 505c14 24 49 52 73 55 39 23 44 81 41 111v1c13-9 20-52 13-88a118 118 0 0 0-3-13c-3-9-7-18-13-25-12-14-19-25-23-34-6-10-7-16-7-16s-41 12-61-9c21 7 33 5 40-1l1-1h-1s-34 5-47-3c9 18 41 32 52 31 10-1 53 44 49 78-16-24-22-40-39-40s-62-25-75-46z" class="cls-6"/><path id="path723" d="M1020 360c18-7 25-39 17-59-12 0-21 12-24 17 4-4 13-11 22-13 4 31-15 47-27 45-12-1-11-16-11-16-2 9 5 32 23 26z" class="cls-6"/><path id="path725" d="M992 293z" class="cls-6"/><path id="path727" d="M1009 311c13-4 18-28 12-42-8 0-15 8-17 12a48 48 0 0 1 5-4c3-3 8-6 12-7 4 25-11 37-20 36-8-1-9-9-9-12 0 7 5 21 17 17z" class="cls-6"/><path id="path729" d="M1054 329a66 66 0 0 1-3-11c2 12 21 19 30 19-4-7-19-19-19-52 0-8-4-16-10-23a46 46 0 0 1 5 30c-4 24-14 3-14 9s3 19 11 28z" class="cls-6"/><path id="path731" d="M970 443c-2-13 0-29 10-33-6 11 0 33 16 34 12 1 15-3 26-12-1 0-27 10-36-6-10-16 5-26 6-27-1 1-22 8-25 18-4 10 3 25 3 26z" class="cls-6"/><path id="path733" d="M968 456s30 21 30 59c11-24 6-46 3-52 4-1 13 4 21 6-7-3-12-7-14-11-12-3-14 0-14 0s8 13 6 34c-11-25-20-34-32-36z" class="cls-6"/><path id="path735" d="M1062 866c63 34 150 36 157 101s-64 73-85 47c-7 18 14 34 27 38-41 3-63-31-25-75-30 5-44 16-44 39 4-18 11-25 19-18-9 20-5 46 25 59 30 12 57 0 58 0-1 0-17 2-14-9 66-12 57-95 57-99 0 2 0 15-12 31 11-64-57-95-121-117-48-16-49-59-47-82a235 235 0 0 1-20-72s-2 21-4 26c0 0-34 98 29 131z" class="cls-6"/><path id="path737" d="M1134 831c-78-53-72-141-68-174 3-31-22-61-23-62 0 1 5 23 0 28-10-43-80-75-80-75s-70 32-79 76c-6-6-1-28 0-29-1 1-26 31-23 63s9 120-68 173c-66 45-174 9-206-54 14 35 45 65 90 72 116 19 173-38 199-153 25-116 87-113 87-113s63-3 88 113c25 115 82 172 198 153 46-7 76-37 91-72-33 63-141 99-206 54z" class="cls-6"/><path id="path739" d="M963 606a62 62 0 0 0-7 2c-19 23-48 68-41 118-3-57 48-90 48-90s51 33 48 90c7-50-21-95-41-118a61 61 0 0 0-7-2z" class="cls-6"/><path id="path741" d="m1430 600 1-1-1 1z"/><path id="path743" d="M1472 1264c32 24 132-19 164-90 14-29 19-70 26-69 7 0 6 25 14 26 7 2 20-19 44-86 4-18 9-50 2-89-4-24-12-42-18-50-7 16-8 54-23 67 1-43-11-106-15-110-3-4-42-44-92-56l-8-2c3-18 39-23 38-27s-29-77-34-83c-6-5-56-53-105-47 7 13 7 20 8 24 0 4-6 18-6 18s-11-34-28-50a125 125 0 0 1 2 19s-14-25-26-28c-9 15-42 38-46 65 19-17 23-19 23-19s13 37 23 50c8-1 16 1 24 7 8 5 16 12 25 23 1 2-49-16-59-17-22 5-44 56-48 67-2 8-2 31 2 49 2 9 5 17 8 22 10 14 55 62 75 60 19-14 38-62 38-62l34-13s5-37 3-46a15 15 0 0 0-5 7s-6-18-5-24l4 6s-3-27-15-33c13 2 40 34 41 36l6 18 12 36s33 0 48 7c-34 9-71 29-82 37a33 33 0 0 0-3 2c-6 6-48 74-47 109 1 34 6 36 4 45l-7 66-4 47c-4 50-4 78 8 88z" class="cls-3"/><path id="path745" d="M1475 1063c6-6 19-19 52-37 49-27 27-73 27-73s6 28-16 31c7-35-9-64-17-77a33 33 0 0 0-4 2c-5 6-48 74-47 109 1 34 7 36 5 45z" class="cls-2"/><path id="path747" d="M1506 677s40 19 46 54c-22-24-34-28-34-28s10 25 14 27c-16-3-51-65-26-53z" class="cls-2"/><path id="path749" d="M1416 775s18 18 12 32c-7 15-6 24-10 34-5 9-15-1-20-16-6-15-3-41 1-46 5-6 16-7 17-4z" class="cls-2"/><path id="path751" d="M1392 677s13 37 23 50c8-1 16 1 24 7-2-2-35-23-31-49 0-2 1-13 10-17 9-5 21 4 26 7 22 15 26 44 27 55 2-3 22-26 12-53-7-20-18-29-18-29 7 13 7 20 8 24 0 4-6 18-6 18s-11-34-28-50a125 125 0 0 1 2 19s-14-25-26-28c-9 15-42 38-46 65z" class="cls-6"/><path id="path753" d="M1367 878c10 14 55 62 75 60 19-14 38-62 38-62l34-13s5-37 3-46a15 15 0 0 0-5 7s-6-18-5-24l4 6s-3-27-15-33c13 2 40 34 41 36l6 18c-5-58-45-64-66-67 7 7 24 39 27 69 3 29-40 26-45 49-6 24-53 35-61 22-6-10-29-34-39-44 2 9 5 17 8 22z" class="cls-6"/><path id="path755" d="M1566 805c3-18 39-23 38-27-2-4-29-77-34-83 0 0 26 72 22 79-12 9-28 23-26 31z" class="cls-6"/><path id="path757" d="M1464 1176c-4 50-4 78 8 88 32 24 132-19 164-90 14-29 19-70 26-69 7 0 6 25 14 26 7 2 20-19 44-86 4-18 9-50 2-89-4-24-12-42-18-50-7 16-8 54-23 67 1-43-11-106-15-110-3-4-42-44-92-56l-8-2s57 30 76 56c18 27-6 73-6 73s-3 61-8 86c-5 24-6 117-43 147s-99 26-121 9z" class="cls-6"/><path id="path759" stroke-width="1.2" d="M634 1281a1 1 0 0 1-2 0z"/><path id="path761" stroke-width="1.2" d="M1820 1141H64v334a175 147 0 0 0 19 68 151 127 0 0 0 57 51c24 12 52 18 83 18h628v-16c23 11 50 16 79 16h676v-16c23 11 50 16 80 16h195v-471z"/><path id="path763" stroke-width="1.2" d="M206 1251v206q0 28 12 34 9 6 38 6l15-1h41v62h-89q-31 0-53-12a88 74 0 0 1-34-29 106 89 0 0 1-12-42v-279h188v62z" class="cls-2"/><path id="path765" stroke-width="1.2" d="M535 1196v62l-65-6v306h-82v-307l-70 7v-63z" class="cls-2"/><path id="path767" stroke-width="1.2" d="M708 1196h82v362h-82v-111l-69-4v115h-82v-108l-30-63h30v-191h82v191h69z" class="cls-2"/><path id="path769" stroke-width="1.2" d="M983 1196h82v362H930q-31 0-53-12a89 74 0 0 1-33-29 106 89 0 0 1-12-42v-279h82v261q0 28 12 34 10 6 41 6h16z" class="cls-2"/><path id="path771" stroke-width="1.2" d="m1288 1417 10 141h-192v-362h81v306h1l35-3-1-78z" class="cls-2"/><path id="path773" stroke-width="1.2" d="M1464 1196h82v362h-82v-111l-69-4h-1v115h-82v-108l-30-63h30v-191h82v191h70z" class="cls-2"/><path id="path775" stroke-width="1.2" d="M1739 1196h81v362h-134q-31 0-53-12a89 74 0 0 1-34-29 106 89 0 0 1-12-42v-279h82v261q0 28 12 34 11 6 41 6h17z" class="cls-2"/><path id="path777" fill="url(#linearGradient801)" stroke-width="1.2" d="M223 1553c-20 0-37-4-50-11a83 70 0 0 1-32-28 101 84 0 0 1-11-39v-117h71v99c0 21 4 33 14 38 7 4 21 6 41 6h50v52z"/><path id="path779" stroke-width="1.2" d="M195 1363v94c0 23 5 36 16 42 9 5 23 7 45 7h45v42h-78c-19 0-35-3-48-10a77 64 0 0 1-29-26 95 80 0 0 1-10-37v-112h59m11-9h-82v121a106 89 0 0 0 12 42 88 74 0 0 0 34 29q22 12 53 12h89v-62h-41l-15 1q-29 0-38-6-12-6-12-34v-103z" class="cls-2"/><path id="rect781" fill="url(#White_Black-2)" stroke-width="1.2" d="M393 1358h71v194h-71z"/><path id="path783" stroke-width="1.2" d="M458 1363v185h-59v-185h59m12-9h-82v204h82v-204z" class="cls-2"/><path id="polygon785" fill="url(#White_Black-3)" d="m705 1606-20-50h20v-30h52v30h60v-30h52v171h-52v-97l-55-4h-5v101h-52z" transform="matrix(1.3601 0 0 1.13972 -397 -381)"/><path id="path787" stroke-width="1.2" d="M779 1363v185h-59v-110h-11l-69-4h-12v114h-60v-100l-1-2-23-49h24v-34h60v34h92v-34h59m11-9h-82v33h-69v-33h-82v33h-30l30 63v108h82v-115l69 4v111h82v-204z" class="cls-2"/><path id="path789" fill="url(#White_Black-4)" stroke-width="1.2" d="M930 1553c-19 0-36-4-50-11a83 70 0 0 1-31-28 101 84 0 0 1-11-39v-117h70v99c0 21 5 33 14 38s23 7 45 7l13-1h9v-143h70v195z"/><path id="path791" stroke-width="1.2" d="M1054 1363v185H930c-18 0-34-3-47-10a77 64 0 0 1-29-26 95 80 0 0 1-11-37v-112h60v94c0 23 5 36 16 42 10 5 25 7 48 7h28v-143h59m11-9h-82v143h-16q-31 0-42-6t-11-34v-103h-82v121a106 89 0 0 0 12 42 89 74 0 0 0 33 29q22 11 53 11h135v-203z" class="cls-2"/><path id="polygon793" fill="url(#White_Black-5)" d="m1165 1656 30-2v-69l40-3 6 115h-132v-171h52v130z" transform="matrix(1.3601 0 0 1.13972 -397 -381)"/><path id="path795" stroke-width="1.2" d="M1176 1363v148h13l35-2 11-1v-9l-1-69 43-3 8 121h-168v-185h59m11-9h-82v204h193l-10-141-66 4 1 78-35 3h-1v-148z" class="cls-2"/><path id="polygon797" fill="url(#White_Black-6)" d="m1261 1606-20-50h20v-30h52v30h59v-30h52v171h-52v-97l-55-4h-4v101h-52z" transform="matrix(1.3601 0 0 1.13972 -397 -381)"/><path id="path799" stroke-width="1.2" d="M1534 1363v185h-59v-110h-10l-70-4h-12v114h-59v-100l-1-2-24-49h25v-34h59v34h92v-34h59m12-9h-82v33h-70v-33h-82v33h-30l30 63v108h82v-115h1l69 4v111h82v-204z" class="cls-2"/><path id="path801" fill="url(#White_Black-7)" stroke-width="1.2" d="M1686 1553c-20 0-37-4-50-11a83 70 0 0 1-32-28 101 84 0 0 1-11-39v-117h71v99c0 21 4 33 14 38 8 5 23 7 44 7l13-1h9v-143h71v195z"/><path id="path803" stroke-width="1.2" d="M1809 1363v185h-123c-19 0-35-3-48-10a77 64 0 0 1-29-26 95 80 0 0 1-10-37v-112h59v94c0 23 5 36 17 42 9 5 24 7 47 7h28v-143h59m11-9h-81v143h-17q-31 0-41-6-12-6-12-34v-103h-82v121a106 89 0 0 0 12 42 89 74 0 0 0 34 29q22 11 53 11h134v-203z" class="cls-2"/></g></svg>
